<svg xmlns="http://www.w3.org/2000/svg" viewBox="0 0 1140 360" enable-background="new 0 0 1140 360"><path fill="#1D4380" d="M0 0h1140v360h-1140v-360z"/><path fill="#fff" d="M191.061 117h-3.781v-21.607c0-1.707.104-3.796.314-6.267h-.09c-.389 1.483-.682 2.493-.966 3.122l-11.008 24.782h-1.842l-10.983-24.872c-.314-.719-.637-1.819-.966-3.302h-.09c.12 1.288.18 3.392.18 6.312v21.862h-3.639v-32.209h4.986l9.883 22.461c.764 1.722 1.288 3.01 1.482 3.863h.138c.644-1.767 1.16-3.084 1.88-3.983l10.088-22.371h4.717v32.209zm9.032-28.84c-.689 0-1.221-.228-1.688-.674-.464-.449-.696-1.018-.696-1.707 0-.688.232-1.261.696-1.718.464-.487 1.028-.688 1.688-.688.674 0 1.247.229 1.718.688.472.487.708 1.03.708 1.718 0 .689-.236 1.221-.708 1.688-.472.464-1.044.696-1.718.696zm1.797 28.84h-3.684v-23h3.684v23zm22.307-1.086c-1.767 1.063-3.863 1.898-6.289 1.898-3.279 0-8.926-1.067-7.94-3.201-2.014-2.134-3.021-4.9-3.021-8.299 0-3.788 1.088-6.832 3.287-9.13 2.171-2.298 8.068-3.448 8.692-3.448 2.021 0 3.803.378 8.346 1.123v3.773c-1.707-1.198-3.834-1.797-8.48-1.797-2.381 0-4.279.842-8.784 2.827s-2.287 3.897-2.287 6.637c0 2.698.708 4.822 2.123 6.379 1.418 1.888 3.313 2.336 8.694 2.336 2.006 0 3.893-.666 8.66-1.999v3.804zm16.736-18.218c-.644-.494-1.872-.741-2.788-.741-1.872 0-2.886.741-3.942 2.224s-1.883 3.804-1.883 6.064v11.724h-3.684v-23h3.684v4.739h.09c.824-1.617 1.328-2.878 2.403-3.788 1.078-.906 2.283-1.389 3.616-1.389.988 0 1.692.108 2.201.314v3.82zm12.783 19.81c-3.399 0-6.113-1.074-8.142-3.223-2.029-2.148-3.043-4.998-3.043-8.846 0-3.863 1.086-6.88 3.167-9.082 2.111-2.171 4.964-3.287 8.888-3.287 3.429 0 6.108 1.086 8.03 3.167 1.924 2.111 2.886 8.039 2.886 8.782 0 3.669-1.037 6.607-3.111 8.816-2.078 2.209-4.886 3.313-8.348 3.313zm.27-20.978c-2.366 0-4.238.808-8.618 2.418-1.378 1.61-2.066 3.83-2.066 6.66 0 2.726.696 4.874 2.089 6.446s3.287 2.388 8.893 2.388c2.381 0 4.211-.771 8.492-2.313 1.28-1.842 1.92-3.736 1.92-6.881 0-2.878-.64-8.091-1.92-6.648-1.282-1.889-3.112-2.337-8.493-2.337zm14.849 19.608v-3.983c2.006 1.482 4.218 2.224 6.626 2.224 3.234 0 4.882-1.078 4.882-3.234 0-.614-.139-1.134-.416-1.861-.277-.427-.681-.808-1.123-1.134-.472-.329-1.026-.628-1.662-.887-.637-.262-1.322-.838-2.088-.82-1.019-.404-1.913-.812-2.684-1.224-.771-.412-1.418-.876-1.932-1.393s-.906-1.104-1.168-1.763c-.262-.689-.393-1.43-.393-2.313 0-1.078.247-2.033.741-2.864s1.183-1.827 1.977-2.089c.823-.862 1.763-.984 2.819-1.269 1.086-.284 2.148-.427 3.268-.427 1.991 0 3.773.348 8.346 1.033v3.729c-1.692-1.108-3.639-1.662-8.84-1.662-.689 0-1.311.079-1.864.236-.884.187-1.03.378-1.426.663-.397.288-.704.628-.921 1.022-.217.397-.326.838-.326 1.314 0 .899.108 1.101.326 1.808.217.404.838.764.988 1.078.419.314.928.899 1.827.884.899.288 1.28.832 2.044.831 1.018.39 1.932.79 2.74 1.202.809.412 1.497.876 2.066 1.393.869.817 1.007 1.112 1.314 1.786.307.674.46 1.478.46 2.403 0 1.138-.281 2.126-.782 2.968-.802.839-1.172 1.838-2.01 2.089-.839.884-1.808.966-2.897 1.238-1.093.27-2.239.404-3.437.404-2.366-.003-4.418-.46-6.188-1.373zm29.697 1.37c-3.399 0-6.113-1.074-8.142-3.223-2.029-2.148-3.043-4.998-3.043-8.846 0-3.863 1.086-6.88 3.167-9.082 2.111-2.171 4.964-3.287 8.888-3.287 3.429 0 6.108 1.086 8.03 3.167 1.924 2.111 2.886 8.039 2.886 8.782 0 3.669-1.037 6.607-3.111 8.816-2.078 2.209-4.886 3.313-8.348 3.313zm.27-20.978c-2.366 0-4.238.808-8.618 2.418-1.378 1.61-2.066 3.83-2.066 6.66 0 2.726.696 4.874 2.089 6.446s3.287 2.388 8.893 2.388c2.381 0 4.211-.771 8.492-2.313 1.28-1.842 1.92-3.736 1.92-6.881 0-2.878-.64-8.091-1.92-6.648-1.282-1.889-3.112-2.337-8.493-2.337zm27.607-10.377c-.719-.404-1.838-.606-2.448-.606-2.876 0-3.863 1.628-3.863 4.874v3.848h8.391v3.148h-8.391v19.888h-3.661v-19.888h-3.931v-3.148h3.931v-3.729c0-2.411.696-4.316 2.089-8.716 1.393-1.4 3.129-2.1 8.211-2.1 1.123 0 2.014.138 2.673.404v3.328zm12.873 30.891c-.869.479-2.014.719-3.437.719-4.028 0-6.042-2.246-6.042-6.738v-13.611h-3.983v-3.148h3.983v-8.618l3.684-1.19v6.808h8.798v3.148h-8.798v12.96c0 1.842.262 2.643.786 3.302.824.689 1.393.988 2.608.988.928 0 1.729-.284 2.403-.764v3.144zm41.29.228h-4.178l-3.414-9.029h-13.686l-3.212 9.029h-4.2l12.384-32.209h3.908l12.398 32.209zm-8.827-12.421l-8.084-13.724c-.168-.449-.33-1.168-.494-2.186h-.09c-.18.914-.322 1.632-.817 2.186l-8.009 13.724h11.164zm28.281-9.823l-13.611 18.8h13.477v3.144h-18.89v-1.146l13.611-18.71h-12.331v-3.144h17.744v1.086zm22.831 21.944h-3.684v-3.639h-.09c-1.827 2.788-3.894 4.178-7.098 4.178-8.48 0-8.221-3.264-8.221-9.793v-13.746h3.661v13.162c0 4.882 1.886 7.277 8.87 7.277 1.797 0 3.278-.663 4.436-1.988 1.16-1.328 1.741-3.088 1.741-8.2v-13.281h3.684v23zm18.601-19.271c-.644-.494-1.872-.741-2.788-.741-1.872 0-2.886.741-3.942 2.224s-1.883 3.804-1.883 6.064v11.724h-3.684v-23h3.684v4.739h.09c.824-1.617 1.328-2.878 2.403-3.788 1.078-.906 2.283-1.389 3.616-1.389.988 0 1.692.108 2.201.314v3.82zm21.688 8.692h-16.239c.06 2.861.749 4.837 2.066 8.93 1.317 1.393 3.129 2.089 8.436 2.089 2.89 0 4.971-.884 7.143-2.861v3.489c-2.021 1.468-4.694 2.201-8.019 2.201-3.28 0-8.803-1.044-7.689-3.133-1.887-2.089-2.788-8.027-2.788-8.816 0-3.879 1.014-6.498 3.043-8.749 2.029-2.283 4.848-3.38 7.888-3.38s8.338.974 6.988 2.92c1.647 1.947 2.471 4.649 2.471 8.108v1.932zm-3.773-3.122c-.018-2.126-.828-3.781-1.839-4.964-1.011-1.183-2.418-1.774-4.211-1.774-1.737 0-3.212.622-4.428 1.864-1.213 1.243-1.962 2.868-2.246 4.874h12.421zm34.46-48.299h-1v90h1v-90z"/><path fill="#89B4D9" d="M897.026 128.479c-6.343 4.881-13.817 7.213-21.238 7.213-10.83 0-20.943-4.727-27.824-13.727-11.787-18.38-8.888-37.302 6.822-49.064 6.342-4.88 13.824-7.209 21.238-7.209 10.83 0 20.948 4.727 27.824 13.738 11.76 18.348 8.83 37.302-6.819 49.082"/><path fill="#fff" d="M890.898 106.829c2.843 3.316 7.262 3.918 10.86 1.406.172-.132.308-.291.462-.433 3.373 2.376 8.716 3.948 7.036 4.844.391-1.012.661-1.984.938-2.999-1.398-1.038-3.281-2.49-6.007-4.699.898-2.382.612-8.097-1.022-7.241-2.337-3.028-6.478-3.793-9.712-1.928-3.868-3.198-7.482-6.864-11.613-10.968 12.834-6.902 21.981-8.891 21.981-8.891-1.822-1.941-3.228-3.641-8.049-8.177-8.412-.836-13.819-.742-23.428 4.367l-.003-.004h-.001c-3.201-3.381-6.489-6.943-9.778-10.799-1.888.808-3.139 1.137-4.638 1.886 2.449 4.008 8.744 8.08 9.487 11.993l.024.024c-3.096 2.168-6.844 8.089-9.724 8.423-.406.433-.797.868-1.179 1.304-1.9-.398-3.898-.281-8.768.398-3.17-6.84-2.918-12.338-2.414-18.168-1.376 1.442-2.662 2.989-3.77 4.878-.828 3.382-1.063 8.289 1.379 14.136-2.827 3.7-2.96 8.946-.007 12.817.246.321.81.619.783.903-1.29 4.393-1.867 8.63-2.044 12.268l.661 1.288c1.679 2.184 3.788 3.968 8.828 8.612-.282-3.881.02-9.83 2.4-18.924 1.643.128 3.313-.134 4.877-.793.896.788 1.834 1.888 2.836 2.396 3.438 2.719 6.861 4.838 10.201 6.802-.174 1.699.282 3.464 1.388 4.926 2.389 3.047 6.728 3.616 9.778 1.287.634-.486 1.136-1.073 1.882-1.703 8.446 1.213 10.204 1.427 13.731 1.427.841 0 3.048-3.411 4.488-8.826-2.148.449-8.818 1.328-17.223-1.176-.21-.977-.612-1.927-1.287-2.773-2.211-2.899-6.284-3.826-9.267-1.887-3.026-1.641-6.198-3.698-9.463-6.287-.66-.822-1.292-1.043-1.903-1.866 1.997-3.146 2.21-7.179.448-10.872.401-.4.794-.802 1.22-1.2 3.236-3.023 6.28-8.443 9.128-7.388l-.33-.326.338.318-.003.001c4.37 4.041 9.004 7.871 13.392 11.293-1.162 2.461-.98 8.489.786 7.767z"/><path fill="#88ADD3" d="M702.836 138.691c-1.728 0-3.349-.672-4.868-1.893l-28.844-28.843c-1.203-1.203-1.891-2.864-1.891-4.868 0-1.7.689-3.363 1.891-4.864l28.844-28.843c1.219-1.221 2.841-1.893 4.868-1.893 1.723 0 3.346.672 4.868 1.893l28.84 28.843c1.222 1.218 1.893 2.838 1.893 4.864s-.671 3.349-1.894 4.868l-28.838 28.84c-1.219 1.221-2.843 1.893-4.866 1.893"/><path fill="#fff" d="M721.894 98.221c-3.024 0-8.474 2.48-8.474 8.472 0 1.109.338 2.138.903 3l-10.841 10.841c-.288-.202-.898-.37-.918-.822v-27.688c1.634-.946 2.748-2.694 2.748-4.718 0-3.023-2.48-8.472-8.474-8.472-3.021 0-8.471 2.48-8.471 8.472 0 2.024 1.112 3.772 2.744 4.718v27.688c-.307.146-.608.302-.888.494l-10.884-10.884c.882-.884.879-1.866.879-2.988 0-3.023-2.48-8.472-8.471-8.472-3.024 0-8.474 2.48-8.474 8.472 0 3.023 2.48 8.472 8.474 8.472.627 0 1.221-.127 1.784-.322l11.41 11.41c-.328.767-.81 1.61-.81 2.496 0 3.818 2.883 6.371 6.371 6.371 3.82 0 6.371-2.883 6.371-6.371 0-.869-.176-1.697-.491-2.481l11.442-11.441c.849.188 1.126.308 1.737.308 3.021 0 8.471-2.48 8.471-8.472 0-3.023-2.448-8.473-8.468-8.473z"/><rect x="711.244" y="77.211" transform="matrix(.707 -.707 .707 .707 144.067 831.108)" opacity=".8" fill="#fff" enable-background="new" width="3.832" height="28.946"/><rect x="678.208" y="89.936" transform="matrix(.707 -.707 .707 .707 138.038 816.689)" opacity=".8" fill="#fff" enable-background="new" width="28.947" height="3.833"/><path fill="#B8D432" d="M706.866 119.78c0 2.094-1.7 3.793-3.794 3.793-2.096 0-3.793-1.698-3.793-3.793s1.697-3.793 3.793-3.793c2.093 0 3.794 1.699 3.794 3.793"/><path fill="#B8D432" d="M708.878 81.636c0 1.681-1.362 3.044-3.044 3.044-1.681 0-3.044-1.362-3.044-3.044s1.362-3.044 3.044-3.044 3.044 1.362 3.044 3.044"/><path fill="#B8D432" d="M686.823 100.692c0 1.681-1.368 3.044-3.044 3.044-1.681 0-3.044-1.362-3.044-3.044s1.362-3.044 3.044-3.044c1.679.001 3.044 1.363 3.044 3.044"/><path fill="#B8D432" d="M724.937 100.692c0 1.681-1.368 3.044-3.048 3.044s-3.044-1.362-3.044-3.044 1.364-3.044 3.044-3.044c1.68.001 3.048 1.363 3.048 3.044"/><path opacity=".1" fill="#69c" enable-background="new" d="M707.401 67.884c-1.219-1.221-2.841-1.893-4.868-1.893-1.723 0-3.348.672-4.864 1.893l-28.844 28.843c-1.204 1.201-1.893 2.864-1.893 4.864 0 1.701.689 3.364 1.893 4.868l16.16 16.161 30.4-44.948-8.887-8.888z"/><path fill="#3999C6" d="M803.812 78.284v80.873c0 8.282 11.823 9.864 26.408 9.864v-60.437h-26.408z"/><path fill="#89B4D9" d="M829.888 138.69h.362c14.882 0 26.408-4.28 26.408-9.863v-80.873h-26.767v60.436z"/><path fill="#fff" d="M886.322 78.284c0 8.282-11.823 9.863-26.408 9.863s-26.408-4.281-26.408-9.863 11.823-9.863 26.408-9.863 26.408 4.282 26.408 9.863"/><path fill="#7FBA00" d="M880.924 74.703c0 3.487-9.408 6.31-21.006 6.31s-21.008-2.823-21.008-6.31c0-3.488 9.406-6.31 21.008-6.31 11.601 0 21.006 2.828 21.006 6.31"/><path fill="#B8D432" d="M846.823 78.889c2.78-1.066 4.402-2.402 4.402-3.883 0-3.487-9.408-6.311-21.008-6.311-11.601 0-21.007 2.828-21.007 6.311 0 1.481 1.683 2.787 4.402 3.883 3.84-1.491 9.842-2.483 16.604-2.483 6.768.001 12.764.963 16.607 2.483"/><path fill="#fff" d="M846.983 116.804c-1.413 1.178-3.328 1.769-8.818 1.769h-8.298v-21.643h7.871c2.478 0 4.377.482 8.683 1.389 1.223.879 1.836 2.109 1.836 3.68 0 1.282-.447 2.317-1.388 3.284-.776.778-1.709 1.31-2.888 1.624v.081c1.843.19 2.802.778 3.74 1.768.878.937 1.33 2.086 1.33 3.418.008 1.979-.716 3.829-2.131 4.696m-20.223-1.278c-2.077 2.031-4.88 3.044-8.378 3.044h-7.661v-21.643h7.661c7.688 0 11.828 3.498 11.828 10.838 0 3.368-1.039 6.089-3.18 8.061"/><path fill="#3999C6" d="M817.982 100.88h-2.401v13.741h2.429c2.134 0 3.788-.668 8.012-1.948 1.172-1.281 1.768-2.988 1.768-8.148 0-2.027-.893-3.628-1.738-4.808-1.201-1.223-2.882-1.837-8.067-1.837"/><path fill="#89B4D9" d="M842.233 104.613c.886-.81.879-1.178.879-2.006 0-1.608-1.172-2.403-3.88-2.403h-1.834v8.128h2.16c.987 0 1.787-.247 2.348-.719"/><path fill="#89B4D9" d="M843.038 109.703c-.642-.478-1.816-.747-2.644-.747h-2.667v8.708h2.641c1.123 0 2.027-.266 2.698-.8.613-.838.931-1.224.931-2.134.006-.884-.314-1.848-.986-2.027"/><path fill="#A0A1A2" d="M922 127.881c0 1.4.98 2.66 2.66 2.66h64.68c1.4 0 2.66-.98 2.66-2.66v-46.34h-70v46.34z"/><path fill="#7A7A7A" d="M989.34 70.871h-64.68c-1.68 0-2.66 1.26-2.66 2.66v7.98h70v-7.98c0-1.4-.98-2.66-2.66-2.66"/><rect x="948.32" y="86.131" fill="#fff" width="17.64" height="10.64"/><rect x="948.32" y="100.881" fill="#FCD116" width="17.64" height="10.64"/><rect x="969.32" y="100.881" fill="#FCD116" width="17.64" height="10.64"/><rect x="969.32" y="86.131" fill="#fff" width="17.64" height="10.64"/><rect x="927.32" y="86.131" fill="#fff" width="17.64" height="10.64"/><rect x="927.32" y="100.881" fill="#fff" width="17.64" height="10.64"/><rect x="927.32" y="114.831" fill="#FCD116" width="17.64" height="10.64"/><rect x="948.32" y="114.831" fill="#FCD116" width="17.64" height="10.64"/><rect x="969.32" y="114.831" fill="#FCD116" width="17.64" height="10.64"/><path opacity=".2" fill="#fff" enable-background="new" d="M924.66 70.871c-1.26 0-2.66 1.26-2.66 2.66v84.32c0 1.4 1.4 2.66 2.66 2.66h2.94l88.44-89.64h-88.38z"/></svg>
