<svg xmlns="http://www.w3.org/2000/svg" viewBox="0 0 1140 360" enable-background="new 0 0 1140 360"><path fill="#68217A" d="M0 0h1140v360h-1140v-360z"/><polygon fill="#E44D26" points="628.487,132.801 619.684,67.717 683.416,67.717 677.607,132.791 681.496,140.03"/><polygon fill="#F16829" points="681.838,134.497 672.634,128.648 677.898,73.039 681.838,73.039"/><polygon fill="#EBEBEB" points="681.838,97.178 640.973,97.178 640.243,89.004 681.838,89.004 681.838,81.021 681.808,81.021 631.819,81.021 631.71,83.163 633.672,108.16 681.838,108.16"/><polygon fill="#EBEBEB" points="681.838,117.909 681.8,117.918 642.61,118.817 642.042,109.181 637.722,109.181 634.029,109.181 638.147,121.688 681.499,126.224 681.838,126.214"/><path d="M628.887 80.03h4.087v4.008h3.711v-4.008h4.087v12.137h-4.087v-4.064h-3.711v4.064h-4.087v-12.137zm17.188 4.028h-3.871v-4.028h11.201v4.028h-3.873v8.112h-4.087v-8.112zm9.407-4.028h4.23l2.602 4.264 2.899-4.264h4.231v12.137h-4.04v-6.016l-2.791 4.318h-.07l-2.793-4.318v6.016h-3.969v-12.137zm18.682 0h4.088v8.128h8.708v4.012h-9.762v-12.137z"/><polygon fill="#fff" points="681.808,97.178 681.808,108.16 661.337,108.16 660.41,118.812 681.808,117.918 681.808,126.22 667.872,121.688 667.992,120.336 669.868,99.321 670.062,97.178 667.911,97.178"/><polygon fill="#fff" points="681.808,81.021 681.808,88.979 681.808,88.984 681.808,89.004 670.763,89.004 670.763,89.004 670.789,89.004 670.949,87.209 671.313,83.163 671.803,81.021"/><polygon points="777.78,88.803 777.78,81.686 767.862,81.686 767.862,63.777 777.78,63.777 777.78,89.631 772.008,89.631 772.008,88.803"/><polygon points="791.788,81.686 781.896,81.686 781.896,88.913 786.023,89.631 781.896,89.631 781.896,63.777 791.788,63.777 791.788,89.74 788.034,88.803 791.788,88.803"/><polygon points="806.138,81.686 796.28,81.686 796.28,88.913 800.217,89.631 796.28,89.631 796.28,63.777 806.138,63.777 806.138,89.74 802.228,88.803 806.138,88.803"/><polygon fill="#0071BC" points="760.908,134.424 788.103,69.309 818.897,69.309 813.088,134.413 786.961,141.686"/><polygon fill="#29ABE2" points="787.084,136.117 808.137,130.316 813.077,74.732 787.084,74.732"/><polygon fill="#B3B3B3" points="768.392,98.688 769.091,106.629 787.084,98.688 787.084,90.668"/><polygon fill="#E6E6E6" points="806.948,82.142 787.084,90.668 787.084,98.688 806.262,90.116"/><polygon fill="#E6E6E6" points="787.084,119.819 786.992,119.829 778.084,117.136 777.802,110.776 769.488,110.776 770.603,123.307 786.99,127.844 787.084,127.829"/><polygon fill="#fff" points="787.084,98.688 787.084,106.629 796.807,106.629 798.92,117.088 787.084,119.826 787.084,127.838 803.386,123.298 808.836,98.688"/><polygon fill="#E6E6E6" points="787.084,98.688 768.392,98.688 769.091,106.629 787.084,106.629"/><polygon fill="#E6E6E6" points="787.084,90.116 787.084,82.142 786.973,82.142 766.974,82.142 767.682,90.116"/><polygon fill="#fff" points="787.084,82.142 787.084,90.016 787.084,90.116 806.262,90.116 806.948,82.142"/><rect x="882.28" y="64.28" fill="#F0DB4F" width="70" height="70"/><path fill="#383630" d="M929.272 118.938c1.41 2.302 3.244 3.994 6.489 3.994 2.726 0 4.467-1.362 4.467-3.244 0-2.286-1.789-3.084-4.789-4.367l-1.644-.706c-4.747-2.022-7.9-4.886-7.9-9.911 0-4.933 3.789-8.689 9.633-8.689 4.182 0 7.189 1.486 9.386 8.267l-8.122 3.289c-1.128-2.022-2.344-2.819-4.233-2.819-1.927 0-3.148 1.222-3.148 2.819 0 1.973 1.222 2.772 4.044 3.994l1.644.704c8.889 2.397 8.744 4.84 8.744 10.333 0 8.922-4.682 9.167-10.9 9.167-6.109 0-10.086-2.911-11.987-6.727l8.346-3.104zm-23.236.87c1.033 1.833 1.973 3.383 4.233 3.383 2.161 0 3.824-.846 3.824-4.133v-22.367h6.878v22.486c0 6.811-3.993 9.911-9.822 9.911-8.267 0-8.317-2.726-9.868-6.008l8.388-3.242z"/><path d="M296.374 83.483c0 .708-.246 1.296-.737 1.763-.494.47-1.076.704-1.782.704-.693 0-1.277-.227-1.782-.681-.477-.482-.718-1.048-.718-1.786 0-.66.234-1.234.703-1.717.468-.484 1.087-.727 1.768-.727.706 0 1.299.239 1.778.718.478.477.713 1.084.713 1.729zm177.29 0c0 .708-.248 1.296-.737 1.763-.494.47-1.076.704-1.782.704-.693 0-1.277-.227-1.782-.681-.477-.482-.718-1.048-.718-1.786 0-.66.234-1.234.703-1.717.468-.484 1.087-.727 1.768-.727.706 0 1.299.239 1.778.718.478.477.713 1.084.713 1.729zm-184.79-1.697l-12.216 33.082h-4.241l-12.008-33.082h4.31l9.842 28.212h.092l10.072-28.212h4.149zm6.822 33.082h-3.78v-23.602h3.78v23.602zm19.173-6.316c0 2.044-.788 3.703-2.362 4.978-1.878 1.276-3.669 1.913-6.281 1.913-2.228 0-4.18-.476-8.884-1.429v-4.086c1.889 1.806 3.903 2.288 6.131 2.288 2.996 0 4.494-1.098 4.494-3.296 0-.891-.292-1.617-.876-2.178-.884-.861-1.913-1.317-3.988-2.27-2.09-.891-3.868-1.848-4.428-2.87-.861-1.022-1.291-2.378-1.291-4.068 0-1.981.784-3.88 2.381-4.886s3.887-1.989 8.97-1.989c1.889 0 3.842.369 8.048 1.106v3.803c-1.837-1.121-3.319-1.682-8.347-1.682-1.244 0-2.247.308-3.008.922-.761.614-1.141 1.406-1.141 2.374 0 1.048.292 1.848.876 2.408.884.861 1.79 1.226 3.619 1.994 2.243.983 3.818 1.981 4.728 2.996.906 1.046 1.389 2.36 1.389 3.942zm23.041 6.316h-3.78v-3.734h-.092c-1.867 2.873-3.987 4.31-7.26 4.31-8.639 0-8.489-3.387-8.489-10.072v-14.106h3.78v13.807c0 4.964 1.908 7.444 8.716 7.444 1.878 0 3.396-.68 4.864-2.04 1.168-1.36 1.782-3.13 1.782-8.313v-13.898h3.78v23.602zm22.716 0h-3.78v-3.688h-.092c-1.644 2.843-4.064 4.264-7.26 4.264-2.274 0-4.098-.618-8.462-1.888-1.368-1.237-2.081-2.9-2.081-4.99 0-4.394 2.897-6.961 7.791-7.698l7.076-.991c0-3.998-1.621-8.993-4.863-8.993-2.843 0-8.409.96-7.698 2.881v-3.872c.692-.822 1.878-1.026 3.849-1.81 1.678-.484 3.168-.726 4.472-.726 8.847 0 8.321 2.943 8.321 8.828v18.38zm-3.78-11.94l-8.716.807c-1.982.276-3.319.741-4.103 1.394-.784.683-1.176 1.71-1.176 3.17 0 1.183.422 2.132 1.268 2.846.848.714 1.928 1.071 3.28 1.071 1.878 0 3.423-.66 4.644-1.982 1.222-1.321 1.832-2.973 1.832-4.986v-2.38zm13.13 11.94h-3.78v-34.942h3.78v34.942zm29.878-8.344c0 2.781-.983 4.964-2.98 6.846-1.967 1.883-4.641 2.374-8.021 2.374-1.23 0-2.616-.204-4.16-.611-1.844-.407-2.639-.833-3.284-1.279v-4.887c.937.848 2.17 1.882 3.699 2.121s2.984.883 4.276.883c4.241 0 6.361-1.682 6.361-4.986 0-1.383-.483-2.87-1.36-3.861-.907-.991-2.766-2.294-8.878-3.907-2.719-1.836-4.628-2.996-8.716-4.379-1.091-1.383-1.637-3.068-1.637-8.048 0-2.612.976-4.736 2.927-6.373 1.981-1.637 4.472-2.488 7.86-2.488 2.968 0 8.132.392 6.8 1.176v4.333c-1.721-1.382-3.987-2.028-6.707-2.028-1.829 0-3.323.487-4.483 1.371-1.16.914-1.74 2.124-1.74 3.63 0 1.091.173 1.967.819 2.627.346.661.93 1.314 1.782 1.989.822.646 2.209 1.814 4.16 2.604 2.919 1.629 4.963 3.166 6.131 4.61 1.167 1.446 1.781 3.108 1.781 4.98zm18.181 8.113c-.907.807-2.09.761-3.849.761-4.118 0-6.177-2.32-6.177-6.961v-13.967h-4.087v-3.204h4.087v-8.762l3.78-1.221v6.983h8.946v3.204h-8.946v13.322c0 1.883.269 2.709.807 3.377.838.668 1.437 1.003 2.697 1.003.937 0 1.782-.284 2.443-.761v3.226zm22.793.231h-3.78v-3.734h-.092c-1.867 2.873-3.987 4.31-7.26 4.31-8.639 0-8.489-3.387-8.489-10.072v-14.106h3.78v13.807c0 4.964 1.908 7.444 8.716 7.444 1.874 0 3.396-.68 4.863-2.04 1.168-1.36 1.782-3.13 1.782-8.313v-13.898h3.78v23.602zm28.871 0h-3.78v-4.011h-.092c-1.782 3.088-4.486 4.887-8.113 4.887-2.981 0-8.388-1.071-7.122-3.218-1.767-2.143-2.681-8.008-2.681-8.886 0-3.902.98-7.037 2.939-9.404 1.989-2.366 4.883-3.849 7.871-3.849 3.227 0 8.888 1.276 7.076 3.826h.092v-14.89h3.78v34.942zm-3.78-10.672v-3.48c0-1.981-.68-3.872-1.948-4.863-1.299-1.291-2.878-1.936-4.737-1.936-2.274 0-4.079.841-8.416 2.824s-2.008 4.018-2.008 6.998c0 2.708.63 4.844 1.89 6.419 1.26 1.878 2.988 2.363 8.094 2.363 2.074 0 3.78-.782 8.117-2.288 1.337-1.808 2.008-3.428 2.008-8.764zm13.282 10.672h-3.78v-23.602h3.78v23.602zm27.836-11.893c0 3.749-1.064 6.768-3.192 9.047-2.128 2.282-4.982 3.423-8.863 3.423-3.488 0-6.273-1.11-8.388-3.33-2.082-2.22-3.123-8.143-3.123-8.77 0-3.903 1.068-6.987 3.204-9.284 2.138-2.266 8.078-3.4 8.828-3.4 3.803 0 6.246 1.098 8.228 3.288 1.982 2.188 2.973 8.188 2.973 8.999zm-3.872.138c0-2.968-.687-8.24-1.971-6.823-1.314-1.882-3.192-2.374-8.638-2.374-2.428 0-4.349.811-8.762 2.432-1.414 1.621-2.12 3.906-2.12 6.887 0 2.828.71 8.036 2.132 6.626 1.421 1.89 3.338 2.388 8.781 2.388 2.488 0 4.341-.784 8.647-2.381 1.304-1.866 1.988-3.817 1.988-6.782zm-266.807-32.32l-21.866 21.866-13.946-10.847-8.809 2.784v27.847l8.809 2.788 13.946-10.848 21.866 21.866 13.774-8.809v-44.078l-13.774-8.809zm-38.812 38.811v-16.828l8.268 8.268-8.268 8.263zm21.281-8.263l14.861-11.326v22.681l-14.861-11.328z" fill="#fff"/><rect x="848.8" y="61" fill="#fff" width="1" height="74"/></svg>
