<svg xmlns="http://www.w3.org/2000/svg" viewBox="0 0 1140 360" enable-background="new 0 0 1140 360"><path fill="#86B4D9" d="M0 0h1140v360h-1140v-360z"/><path fill="#fff" d="M163.29 114.814h-3.996l-3.266-8.637h-13.063l-3.072 8.637h-4.018l11.816-30.809h3.738l11.861 30.809zm-8.443-11.881l-4.834-13.127c-.188-.43-.318-1.117-.473-2.063h-.086c-.144.874-.308 1.862-.494 2.063l-4.791 13.127h10.678zm10.921 10.638v-4.284c.487.43 1.07.816 1.781 1.16.68.344 1.396.634 2.148.87s1.807.419 2.267.848c.789.129 1.461.193 2.108.193 2.22 0 3.878-.412 4.974-1.238s1.644-2.009 1.644-3.886c0-.831-.183-1.884-.848-2.17s-.87-1.178-1.818-1.687-1.407-.998-2.288-1.461-1.83-.986-2.847-1.472c-1.074-.844-2.077-1.096-3.008-1.684-.931-.889-1.74-1.178-2.428-1.848s-1.229-1.436-1.622-2.288c-.394-.883-.891-1.882-.891-2.997 0-1.403.308-2.628.924-3.663.616-1.038 1.428-1.898 2.428-2.867 1.002-.673 2.148-1.178 3.427-1.804 1.282-.329 2.889-.494 3.921-.494 3.036 0 8.249.368 6.639 1.096v4.061c-1.819-1.261-4.184-1.891-7.004-1.891-.788 0-1.876.082-2.363.247-.788.168-1.49.434-2.108.806-.616.372-1.117.883-1.804 1.439s-.88 1.304-.88 2.148c0 .788.146 1.468.44 2.041.293.873.727 1.096 1.3 1.868.873.473 1.271.931 2.098 1.378.823.444 1.772.931 2.847 1.461 1.103.844 2.148 1.117 3.137 1.719s1.884 1.268 2.6 1.998c.748.73 1.338 1.84 1.772 2.428.437.888.688 1.908.688 3.081 0 1.819-.297 2.804-.892 3.886-.898 1.083-1.396 1.908-2.406 2.867s-2.174 1.138-3.491 1.429c-1.318.293-2.707.44-4.168.44-.487 0-1.089-.04-1.808-.118-.716-.079-1.447-.193-2.191-.344-.748-.18-1.48-.337-2.116-.889s-1.202-.467-1.602-.739zm27.808-10.399v11.648h-3.609v-30.809h8.468c3.294 0 8.847.802 7.689 2.406 1.812 1.604 2.718 3.867 2.718 6.789s-1.006 8.313-3.019 7.176c-2.013 1.862-4.73 2.793-8.183 2.793h-4.061zm0-18.898v12.633h3.781c2.492 0 4.394-.869 8.704-1.708s1.966-2.746 1.966-4.823c0-4.067-2.406-6.102-7.219-6.102h-4.232zm21.169 28.018c-.689 0-1.221-.236-1.687-.709-.466-.473-.698-1.038-.698-1.697s.232-1.229.698-1.708c.468-.479 1.027-.72 1.687-.72.673 0 1.246.24 1.719.72s.709 1.049.709 1.708-.236 1.228-.709 1.697-1.047.709-1.719.709zm33.007-.472h-4.426l-18.888-24.887c-.401-.616-.73-1.261-.988-1.934h-.129c.114.689.172 2.069.172 4.232v22.288h-3.609v-30.808h4.684l18.426 24.17c.648 1.003 1.06 1.69 1.246 2.063h.086c-.144-.888-.218-2.399-.218-4.833v-21.7h3.609v30.809zm23.79 0h-16.328v-30.809h18.641v3.266h-12.031v10.248h11.129v3.244h-11.129v10.788h12.719v3.266zm23.833-27.843h-8.898v27.843h-3.609v-27.843h-8.873v-3.266h21.377v3.266zm36.623 26.284c-2.277 1.203-8.113 1.808-8.808 1.808-4.383 0-7.892-1.411-10.827-4.232-2.636-2.821-3.983-6.824-3.983-11.107 0-4.927 1.482-8.909 4.447-11.948s6.728-4.888 11.279-4.888c2.922 0 8.342.423 7.262 1.268v3.846c-2.206-1.231-4.641-1.848-7.308-1.848-3.838 0-6.406 1.182-8.604 3.848-2.199 2.363-3.298 8.821-3.298 9.478 0 3.783 1.027 6.742 3.083 8.97 2.088 2.228 4.781 3.341 8.089 3.341 3.094 0 8.772-.688 8.038-2.063v3.8zm14.38 1.804c-3.281 0-8.848-1.027-7.788-3.083-1.941-2.086-2.911-4.78-2.911-8.178 0-3.698 1.01-6.881 3.029-8.688s4.748-3.118 8.186-3.118c3.28 0 8.84 1.01 7.681 3.029 1.84 2.02 2.761 4.819 2.761 8.4 0 3.809-.992 6.32-2.976 8.433-1.984 2.113-4.648 3.169-7.982 3.169zm.288-20.066c-2.263 0-4.084.77-8.371 2.31-1.318 1.84-1.977 3.663-1.977 6.37 0 2.606.666 4.662 1.998 6.166s3.118 2.286 8.38 2.286c2.277 0 4.028-.737 8.283-2.213s1.837-3.873 1.837-6.298c0-2.78-.612-4.87-1.837-6.389s-2.976-2.238-8.283-2.238zm27.188 1.117c-.616-.473-1.804-.709-2.664-.709-1.804 0-2.761.709-3.771 2.127s-1.818 3.382-1.818 8.801v11.218h-3.823v-22h3.823v4.833h.086c.801-1.847 1.268-2.784 2.299-3.62s2.184-1.3 3.489-1.3c.917 0 1.618.101 2.108.301v3.682zm20.89 8.318h-18.833c.087 2.449.716 4.34 1.977 8.672 1.26 1.332 2.993 1.998 8.199 1.998 2.478 0 4.788-.816 6.832-2.449v3.309c-1.934 1.403-4.49 2.108-7.67 2.108-3.108 0-8.88-.999-7.326-2.997-1.776-1.998-2.664-4.809-2.664-8.433 0-3.423.97-6.213 2.911-8.368 1.94-2.188 4.381-3.233 7.229-3.233s8.106.931 6.682 2.793c1.878 1.862 2.363 4.447 2.363 7.786v1.847zm-3.61-2.987c-.018-2.034-.808-3.616-1.472-4.748s-2.31-1.697-4.028-1.697c-1.662 0-3.072.898-4.232 1.783s-1.876 2.743-2.148 4.662h11.88zm40.699-39.408h-1v74h1v-74zm83.892 84.098h-1.842l-7.168-24.238c-.389-1.243-.862-2.283-.606-3.032h-.09c-.048.689-.277 1.688-.696 2.987l-7.637 24.28h-1.842l-9.868-32.209h2.493l7.348 28.808c.329 1.168.862 2.119.696 2.883h.09c.09-.884.382-1.808.786-2.883l7.981-28.808h1.123l7.3 28.808c.344 1.198.876 2.149.696 2.883h.09c.078-.419.194-.898.389-1.438l7.847-27.223h2.403l-9.433 32.209zm14.448-28.798c-.449 0-.846-.168-1.19-.494-.348-.329-.817-.749-.817-1.288 0-.494.176-.898.828-1.202.382-.307.748-.46 1.179-.46.464 0 .872.18 1.224.449.382.3.828.704.828 1.213 0 .479-.172.891-.817 1.238-.344.348-.786.817-1.238.817zm-1.011 28.798v-23h2.066v23h-2.066zm24.239 0v-13.387c0-8.828-1.992-8.288-8.978-8.288-2.216 0-4.036.813-8.488 2.437-1.423 1.628-2.134 3.638-2.134 6.031v13.207h-2.066v-23h2.066v4.178h.09c1.677-3.189 4.297-4.739 7.861-4.739 2.488 0 4.387.828 8.708 2.482 1.317 1.688 1.977 4.017 1.977 7.086v13.993h-2.066zm24.488 0v-4.178h-.09c-.748 1.483-1.888 2.608-3.324 3.489-1.467.884-3.122 1.28-4.963 1.28-2.83 0-8.14-1.033-6.929-3.1-1.79-2.066-2.684-4.919-2.684-8.888 0-3.713.977-6.719 2.931-9.018 1.984-2.298 4.488-3.448 7.603-3.448 3.448 0 8.9 1.418 7.367 4.248h.09v-14.733h2.066v34.081h-2.067zm0-13.993c0-2.141-.678-3.987-2.031-8.447-1.388-1.49-3.18-2.238-8.47-2.238-2.411 0-4.402.928-8.978 2.774-1.872 1.88-2.388 4.391-2.388 7.628 0 3.178.708 8.626 2.123 7.386s3.238 2.894 8.469 2.894c2.62 0 4.649-.812 6.086-2.437 1.438-1.628 2.186-3.608 2.186-8.941v-4.289zm17.838 14.884c-3.384 0-6.009-1.104-7.962-3.313-1.988-2.208-2.932-8.08-2.932-8.614 0-3.818 1.021-6.806 3.066-8.962 2.043-2.186 4.738-3.234 8.074-3.234 3.279 0 8.87 1.071 7.771 3.212 1.901 2.142 2.883 8.106 2.883 8.898 0 3.879-.97 6.477-2.909 8.692-1.938 2.216-4.892 3.324-7.961 3.324zm.187-22.236c-2.71 0-4.87.914-6.48 2.74-1.609 1.827-2.414 4.368-2.414 7.614 0 3.01.786 8.428 2.388 7.288s3.721 2.74 6.446 2.74c2.771 0 4.904-.898 6.401-2.698s2.246-4.29 2.246-7.479c0-3.279-.748-8.798-2.238-7.847-1.489-1.782-3.896-2.628-6.322-2.628zm38.087 21.678h-1.932l-8.009-17.34c-.138-.479-.288-1.123-.389-1.932h-.112c-.03.348-.18.974-.449 1.887l-8.618 17.388h-1.932l-6.94-23h2.291l8.346 18.381c.138.479.239 1.123.314 1.932h.18c.03-.434.172-1.078.427-1.932l8.84-18.381h1.418l8.211 18.381c.12.438.228 1.078.314 1.932h.18c0-.434.127-1.078.382-1.932l8.488-18.381h2.134l-7.144 23zm9.616-1.011v-2.493c.778.674 1.722 1.206 2.83 1.898 1.108.39 2.066.884 2.878.884 3.608 0 8.413-1.478 8.413-4.428 0-1.018-.396-1.887-1.19-2.608s-2.081-1.46-3.863-2.224c-2.201-.988-3.747-1.98-4.638-2.976-.892-1.028-1.337-2.272-1.337-3.74 0-1.872.718-3.384 2.146-4.837 1.43-1.183 3.192-1.729 8.289-1.729 1.977 0 3.669.404 8.076 1.213v2.336c-1.707-1.108-3.474-1.662-8.301-1.662-1.813 0-2.732.393-3.661 1.179s-1.393 1.808-1.393 3.066c0 1.093.292 1.98.876 2.662.884.682 1.872 1.464 3.863 2.347 2.396 1.078 4.043 2.078 4.941 2.999s1.348 2.148 1.348 3.672c0 1.827-.686 3.338-2.088 4.826-1.371 1.19-3.261 1.786-8.672 1.786-2.218-.002-4.064-.826-8.847-1.874zm80.188 1.011v-32.209h2.224v30.188h12.918v2.021h-18.139zm20.802-28.798c-.449 0-.846-.168-1.19-.494-.348-.329-.817-.749-.817-1.288 0-.494.176-.898.828-1.202.382-.307.744-.46 1.179-.46.464 0 .872.18 1.224.449.383.3.828.704.828 1.213 0 .479-.172.891-.817 1.238-.348.348-.786.817-1.238.817zm-1.011 28.798v-23h2.066v23h-2.066zm24.238 0v-13.387c0-8.828-1.991-8.288-8.978-8.288-2.216 0-4.038.813-8.488 2.437-1.423 1.628-2.134 3.638-2.134 6.031v13.207h-2.066v-23h2.066v4.178h.09c1.677-3.189 4.298-4.739 7.861-4.739 2.488 0 4.388.828 8.708 2.482 1.317 1.688 1.977 4.017 1.977 7.086v13.993h-2.066zm23.34 0v-4.178h-.09c-1.603 3.16-4.073 4.739-7.412 4.739-8.436 0-8.183-3.421-8.183-10.268v-13.296h2.089v12.78c0 3.118.813 8.376 1.839 6.783 1.028 1.408 2.639 2.111 4.84 2.111 2.142 0 3.878-.786 8.199-2.388 1.326-1.872 1.988-3.668 1.988-6.289v-13.027h2.066v23h-2.066zm18.727-11.276l7.802 11.278h-2.628l-6.064-9.703h-.09l-.809 1.28c-.104.18-.232.382-.382.606l-8.076 7.816h-2.816l7.682-11.23-7.847-11.77h2.426l8.121 8.243c.689 1.063 1.086 1.722 1.19 1.977h.09l1.146-1.887 8.346-8.333h2.426l-7.817 11.726zm88.686 11.837c-4.882 0-8.18-1.812-10.883-4.837-2.702-3.024-4.084-6.988-4.084-11.792 0-8.136 1.389-9.28 4.167-12.342 2.777-3.092 6.869-4.638 11.376-4.638 4.343 0 7.887 1.486 10.846 4.488 2.688 2.973 4.031 6.87 4.031 11.691 0 8.331-1.378 9.823-4.133 12.878s-6.438 4.882-11.08 4.882zm.224-31.288c-3.743 0-6.824 1.388-9.242 4.068-2.419 2.71-3.628 6.289-3.628 10.646 0 4.433 1.146 7.962 3.437 10.89s8.346 3.942 9.164 3.942c3.983 0 7.138-1.299 9.486-3.897 2.321-2.898 3.481-6.218 3.481-10.86 0-4.882-1.138-8.104-3.402-10.688-2.27-2.881-8.387-3.828-9.266-3.828zm19.702 29.881v-2.838c2.306 1.468 4.642 2.201 7.008 2.201 2.816 0 4.428-.82 8.728-1.861s1.984-2.497 1.984-4.369c0-1.647-.438-2.961-1.313-3.942-.877-.98-2.774-2.317-8.694-4.009-3.268-1.901-8.331-3.493-6.199-4.773s-1.303-2.789-1.303-4.436c0-2.276.884-4.208 2.68-8.798 1.767-1.887 4.128-2.381 7.078-2.381 1.917 0 3.833.322 8.78.966v2.336c-1.887-.884-3.9-1.28-6.042-1.28-2.187 0-3.919.884-8.2 1.662-1.279 1.108-1.92 2.816-1.92 4.223 0 1.647.438 2.988 1.314 3.931.878.974 2.766 2.299 8.671 3.976 3.01 1.707 8.013 3.223 6.009 4.848.998 1.328 1.493 2.849 1.493 4.871 0 2.471-.887 4.488-2.871 6.042-1.718 1.888-4.137 2.336-7.267 2.336-1.108 0-2.388-.172-3.829-.817-1.446-.348-2.881-.742-3.314-1.191zm40.8 1.146l-7.412-12.286c-.464-.764-.861-1.812-1.19-2.246h-.112c-.404.824-.831 1.872-1.28 2.246l-7.847 12.286h-2.673l10.178-16.239-9.868-18.97h2.673l7.21 12.106c.374.629.764 1.348 1.168 2.186h.09l1.19-2.186 7.168-12.106h2.883l-9.688 18.928 9.883 16.284h-2.697z"/></svg>
